<mxfile host="app.diagrams.net" modified="2024-03-31T13:03:24.130Z" agent="Mozilla/5.0 (Windows NT 10.0; Win64; x64) AppleWebKit/537.36 (KHTML, like Gecko) Chrome/123.0.0.0 Safari/537.36" etag="y20RGAEQS3q9KASs3Htv" version="24.2.0" type="device">
  <diagram id="C5RBs43oDa-KdzZeNtuy" name="Page-1">
    <mxGraphModel dx="2901" dy="2309" grid="1" gridSize="10" guides="1" tooltips="1" connect="1" arrows="1" fold="1" page="1" pageScale="1" pageWidth="827" pageHeight="1169" math="0" shadow="0">
      <root>
        <mxCell id="WIyWlLk6GJQsqaUBKTNV-0" />
        <mxCell id="WIyWlLk6GJQsqaUBKTNV-1" parent="WIyWlLk6GJQsqaUBKTNV-0" />
        <mxCell id="NPF-jErQcPBGCQD2OKev-37" style="edgeStyle=orthogonalEdgeStyle;rounded=0;orthogonalLoop=1;jettySize=auto;html=1;" parent="WIyWlLk6GJQsqaUBKTNV-1" source="zkfFHV4jXpPFQw0GAbJ--0" target="NPF-jErQcPBGCQD2OKev-33" edge="1">
          <mxGeometry relative="1" as="geometry" />
        </mxCell>
        <mxCell id="zkfFHV4jXpPFQw0GAbJ--0" value="GU Engine : Application" style="swimlane;fontStyle=2;align=center;verticalAlign=top;childLayout=stackLayout;horizontal=1;startSize=26;horizontalStack=0;resizeParent=1;resizeLast=0;collapsible=1;marginBottom=0;rounded=0;shadow=0;strokeWidth=1;fillColor=#a20025;fontColor=#ffffff;strokeColor=#6F0000;" parent="WIyWlLk6GJQsqaUBKTNV-1" vertex="1">
          <mxGeometry x="30" y="20" width="290" height="120" as="geometry">
            <mxRectangle x="230" y="140" width="160" height="26" as="alternateBounds" />
          </mxGeometry>
        </mxCell>
        <mxCell id="zkfFHV4jXpPFQw0GAbJ--1" value="- std::vector&lt;Objects*&gt;Objects" style="text;align=left;verticalAlign=top;spacingLeft=4;spacingRight=4;overflow=hidden;rotatable=0;points=[[0,0.5],[1,0.5]];portConstraint=eastwest;" parent="zkfFHV4jXpPFQw0GAbJ--0" vertex="1">
          <mxGeometry y="26" width="290" height="26" as="geometry" />
        </mxCell>
        <mxCell id="zkfFHV4jXpPFQw0GAbJ--4" value="" style="line;html=1;strokeWidth=1;align=left;verticalAlign=middle;spacingTop=-1;spacingLeft=3;spacingRight=3;rotatable=0;labelPosition=right;points=[];portConstraint=eastwest;" parent="zkfFHV4jXpPFQw0GAbJ--0" vertex="1">
          <mxGeometry y="52" width="290" height="22" as="geometry" />
        </mxCell>
        <mxCell id="zkfFHV4jXpPFQw0GAbJ--5" value="+ void Update(float delta) override &#xa;+ void OnLeftClick() override " style="text;align=left;verticalAlign=top;spacingLeft=4;spacingRight=4;overflow=hidden;rotatable=0;points=[[0,0.5],[1,0.5]];portConstraint=eastwest;" parent="zkfFHV4jXpPFQw0GAbJ--0" vertex="1">
          <mxGeometry y="74" width="290" height="36" as="geometry" />
        </mxCell>
        <mxCell id="NPF-jErQcPBGCQD2OKev-5" value="Object&amp;nbsp;" style="swimlane;fontStyle=0;childLayout=stackLayout;horizontal=1;startSize=26;fillColor=#d80073;horizontalStack=0;resizeParent=1;resizeParentMax=0;resizeLast=0;collapsible=1;marginBottom=0;html=1;strokeColor=#A50040;fontColor=#ffffff;" parent="WIyWlLk6GJQsqaUBKTNV-1" vertex="1">
          <mxGeometry x="490" y="4" width="265" height="158" as="geometry" />
        </mxCell>
        <mxCell id="NPF-jErQcPBGCQD2OKev-6" value="+ ShapeChanges : ShapeID" style="text;strokeColor=none;fillColor=none;align=left;verticalAlign=top;spacingLeft=4;spacingRight=4;overflow=hidden;rotatable=0;points=[[0,0.5],[1,0.5]];portConstraint=eastwest;whiteSpace=wrap;html=1;" parent="NPF-jErQcPBGCQD2OKev-5" vertex="1">
          <mxGeometry y="26" width="265" height="24" as="geometry" />
        </mxCell>
        <mxCell id="NPF-jErQcPBGCQD2OKev-29" value="" style="line;strokeWidth=2;html=1;" parent="NPF-jErQcPBGCQD2OKev-5" vertex="1">
          <mxGeometry y="50" width="265" height="38" as="geometry" />
        </mxCell>
        <mxCell id="NPF-jErQcPBGCQD2OKev-31" value="&lt;div style=&quot;text-align: left;&quot;&gt;&lt;span style=&quot;background-color: initial;&quot;&gt;+ virtual void DebugDraw(LineRenderer* Lines)&lt;/span&gt;&lt;/div&gt;&lt;div&gt;&lt;div style=&quot;text-align: left;&quot;&gt;&lt;span style=&quot;background-color: initial;&quot;&gt;+ virtual void Update(float delta)&lt;/span&gt;&lt;/div&gt;&lt;div style=&quot;text-align: left;&quot;&gt;&lt;span style=&quot;background-color: initial;&quot;&gt;+virtual ShapeChanges GetType()&amp;nbsp;&lt;/span&gt;&lt;/div&gt;&lt;div&gt;&lt;br&gt;&lt;/div&gt;&lt;/div&gt;" style="text;html=1;align=center;verticalAlign=middle;resizable=0;points=[];autosize=1;strokeColor=none;fillColor=none;" parent="NPF-jErQcPBGCQD2OKev-5" vertex="1">
          <mxGeometry y="88" width="265" height="70" as="geometry" />
        </mxCell>
        <mxCell id="NPF-jErQcPBGCQD2OKev-13" style="edgeStyle=orthogonalEdgeStyle;rounded=0;orthogonalLoop=1;jettySize=auto;html=1;entryX=0;entryY=0.5;entryDx=0;entryDy=0;dashed=1;" parent="WIyWlLk6GJQsqaUBKTNV-1" source="zkfFHV4jXpPFQw0GAbJ--4" target="NPF-jErQcPBGCQD2OKev-5" edge="1">
          <mxGeometry relative="1" as="geometry" />
        </mxCell>
        <mxCell id="NPF-jErQcPBGCQD2OKev-23" value="Enum&amp;nbsp; ShapeType" style="swimlane;fontStyle=0;childLayout=stackLayout;horizontal=1;startSize=30;fillColor=#f8cecc;horizontalStack=0;resizeParent=1;resizeParentMax=0;resizeLast=0;collapsible=1;marginBottom=0;html=1;strokeColor=#b85450;" parent="WIyWlLk6GJQsqaUBKTNV-1" vertex="1">
          <mxGeometry x="920" y="-170" width="210" height="100" as="geometry" />
        </mxCell>
        <mxCell id="NPF-jErQcPBGCQD2OKev-24" value="Circle,&lt;div&gt;Box,&amp;nbsp;&lt;/div&gt;&lt;div&gt;Plane&lt;/div&gt;" style="text;strokeColor=none;fillColor=none;align=left;verticalAlign=top;spacingLeft=4;spacingRight=4;overflow=hidden;rotatable=0;points=[[0,0.5],[1,0.5]];portConstraint=eastwest;whiteSpace=wrap;html=1;" parent="NPF-jErQcPBGCQD2OKev-23" vertex="1">
          <mxGeometry y="30" width="210" height="70" as="geometry" />
        </mxCell>
        <mxCell id="NPF-jErQcPBGCQD2OKev-32" style="edgeStyle=orthogonalEdgeStyle;rounded=0;orthogonalLoop=1;jettySize=auto;html=1;entryX=-0.005;entryY=0.3;entryDx=0;entryDy=0;entryPerimeter=0;dashed=1;dashPattern=1 2;" parent="WIyWlLk6GJQsqaUBKTNV-1" source="NPF-jErQcPBGCQD2OKev-29" target="NPF-jErQcPBGCQD2OKev-24" edge="1">
          <mxGeometry relative="1" as="geometry" />
        </mxCell>
        <mxCell id="NPF-jErQcPBGCQD2OKev-42" style="edgeStyle=orthogonalEdgeStyle;rounded=0;orthogonalLoop=1;jettySize=auto;html=1;entryX=0.5;entryY=0;entryDx=0;entryDy=0;dashed=1;" parent="WIyWlLk6GJQsqaUBKTNV-1" source="NPF-jErQcPBGCQD2OKev-33" target="NPF-jErQcPBGCQD2OKev-38" edge="1">
          <mxGeometry relative="1" as="geometry" />
        </mxCell>
        <mxCell id="NPF-jErQcPBGCQD2OKev-33" value="CollisionFunction" style="swimlane;fontStyle=0;childLayout=stackLayout;horizontal=1;startSize=20;fillColor=#008a00;horizontalStack=0;resizeParent=1;resizeParentMax=0;resizeLast=0;collapsible=1;marginBottom=0;html=1;fontColor=#ffffff;strokeColor=#005700;" parent="WIyWlLk6GJQsqaUBKTNV-1" vertex="1">
          <mxGeometry x="-80" y="270" width="420" height="160" as="geometry" />
        </mxCell>
        <mxCell id="NPF-jErQcPBGCQD2OKev-36" value="+CollisionData : GetCollision(Object* Object1, Object* Object2)&lt;div&gt;+&lt;span style=&quot;background-color: initial;&quot;&gt;CollisionData : CollideCircleWithCircle(Circle* Object1, Circle* Object2);&lt;/span&gt;&lt;/div&gt;&lt;div&gt;+CollisionData : CollideCircleWithPlane(Circle* Object1, Plane* Object2);&lt;/div&gt;&lt;div&gt;+CollisionData : CollideBoxWithCircle(Box* Object1, Circle* Object2);&lt;/div&gt;&lt;div&gt;+CollisionData : CollideBoxWithPlane(Box* Object1, Plane* Object2);&lt;/div&gt;&lt;div&gt;+CollisionData : CollideBoxWithBox(Box* Object1, Box*Object2);&lt;/div&gt;&lt;div&gt;+CollisionData : CollidePlaneWithPlane(Plane* Object1, Plane* Object2);&lt;/div&gt;" style="text;strokeColor=none;fillColor=none;align=left;verticalAlign=top;spacingLeft=4;spacingRight=4;overflow=hidden;rotatable=0;points=[[0,0.5],[1,0.5]];portConstraint=eastwest;whiteSpace=wrap;html=1;" parent="NPF-jErQcPBGCQD2OKev-33" vertex="1">
          <mxGeometry y="20" width="420" height="140" as="geometry" />
        </mxCell>
        <mxCell id="NPF-jErQcPBGCQD2OKev-38" value="Struct CollisionData" style="swimlane;fontStyle=0;childLayout=stackLayout;horizontal=1;startSize=20;fillColor=#60a917;horizontalStack=0;resizeParent=1;resizeParentMax=0;resizeLast=0;collapsible=1;marginBottom=0;html=1;fontColor=#ffffff;strokeColor=#2D7600;" parent="WIyWlLk6GJQsqaUBKTNV-1" vertex="1">
          <mxGeometry x="-20" y="520" width="210" height="160" as="geometry" />
        </mxCell>
        <mxCell id="NPF-jErQcPBGCQD2OKev-39" value="+Vec2 : norm&amp;nbsp;&lt;div&gt;+float : depths&lt;/div&gt;&lt;div&gt;+ Object* : Object1&amp;nbsp;&lt;/div&gt;&lt;div&gt;+ Object* : Object2&lt;/div&gt;&lt;div&gt;&lt;br&gt;&lt;/div&gt;" style="text;strokeColor=none;fillColor=none;align=left;verticalAlign=top;spacingLeft=4;spacingRight=4;overflow=hidden;rotatable=0;points=[[0,0.5],[1,0.5]];portConstraint=eastwest;whiteSpace=wrap;html=1;" parent="NPF-jErQcPBGCQD2OKev-38" vertex="1">
          <mxGeometry y="20" width="210" height="70" as="geometry" />
        </mxCell>
        <mxCell id="NPF-jErQcPBGCQD2OKev-40" value="" style="line;strokeWidth=2;html=1;" parent="NPF-jErQcPBGCQD2OKev-38" vertex="1">
          <mxGeometry y="90" width="210" height="10" as="geometry" />
        </mxCell>
        <mxCell id="NPF-jErQcPBGCQD2OKev-41" value="+void : Resolve()&lt;div&gt;+ CollisionData&amp;amp; : GetFlipped()&lt;/div&gt;&lt;div&gt;+bool : IsColliding()&amp;nbsp;&lt;/div&gt;" style="text;strokeColor=none;fillColor=none;align=left;verticalAlign=top;spacingLeft=4;spacingRight=4;overflow=hidden;rotatable=0;points=[[0,0.5],[1,0.5]];portConstraint=eastwest;whiteSpace=wrap;html=1;" parent="NPF-jErQcPBGCQD2OKev-38" vertex="1">
          <mxGeometry y="100" width="210" height="60" as="geometry" />
        </mxCell>
        <mxCell id="NPF-jErQcPBGCQD2OKev-43" value="Box : Object" style="swimlane;fontStyle=0;childLayout=stackLayout;horizontal=1;startSize=20;fillColor=#6d8764;horizontalStack=0;resizeParent=1;resizeParentMax=0;resizeLast=0;collapsible=1;marginBottom=0;html=1;strokeColor=#3A5431;fontColor=#ffffff;" parent="WIyWlLk6GJQsqaUBKTNV-1" vertex="1">
          <mxGeometry x="900" y="180" width="370" height="150" as="geometry" />
        </mxCell>
        <mxCell id="NPF-jErQcPBGCQD2OKev-44" value="+float : height&lt;div&gt;+float : width&amp;nbsp;&lt;/div&gt;" style="text;strokeColor=none;fillColor=none;align=left;verticalAlign=top;spacingLeft=4;spacingRight=4;overflow=hidden;rotatable=0;points=[[0,0.5],[1,0.5]];portConstraint=eastwest;whiteSpace=wrap;html=1;" parent="NPF-jErQcPBGCQD2OKev-43" vertex="1">
          <mxGeometry y="20" width="370" height="40" as="geometry" />
        </mxCell>
        <mxCell id="NPF-jErQcPBGCQD2OKev-45" value="" style="line;strokeWidth=2;html=1;" parent="NPF-jErQcPBGCQD2OKev-43" vertex="1">
          <mxGeometry y="60" width="370" height="10" as="geometry" />
        </mxCell>
        <mxCell id="NPF-jErQcPBGCQD2OKev-46" value="+void : setMass(float m_mass)&lt;div&gt;+float : GetMass() const {return Mass)&lt;/div&gt;&lt;div&gt;+void : SetSize(float xPos, float yPos)&lt;/div&gt;&lt;div&gt;+vitrual void : DebugDraw(LineRenderer* lines) const override&lt;/div&gt;&lt;div&gt;+virtual : ShapeChanges GetType() const override {return Box}&lt;/div&gt;" style="text;strokeColor=none;fillColor=none;align=left;verticalAlign=top;spacingLeft=4;spacingRight=4;overflow=hidden;rotatable=0;points=[[0,0.5],[1,0.5]];portConstraint=eastwest;whiteSpace=wrap;html=1;" parent="NPF-jErQcPBGCQD2OKev-43" vertex="1">
          <mxGeometry y="70" width="370" height="80" as="geometry" />
        </mxCell>
        <mxCell id="NPF-jErQcPBGCQD2OKev-47" value="Circle : Object&amp;nbsp;" style="swimlane;fontStyle=0;childLayout=stackLayout;horizontal=1;startSize=20;fillColor=#647687;horizontalStack=0;resizeParent=1;resizeParentMax=0;resizeLast=0;collapsible=1;marginBottom=0;html=1;strokeColor=#314354;fontColor=#ffffff;" parent="WIyWlLk6GJQsqaUBKTNV-1" vertex="1">
          <mxGeometry x="280" y="490" width="380" height="190" as="geometry" />
        </mxCell>
        <mxCell id="NPF-jErQcPBGCQD2OKev-48" value="+float : radius" style="text;strokeColor=none;fillColor=none;align=left;verticalAlign=top;spacingLeft=4;spacingRight=4;overflow=hidden;rotatable=0;points=[[0,0.5],[1,0.5]];portConstraint=eastwest;whiteSpace=wrap;html=1;" parent="NPF-jErQcPBGCQD2OKev-47" vertex="1">
          <mxGeometry y="20" width="380" height="30" as="geometry" />
        </mxCell>
        <mxCell id="NPF-jErQcPBGCQD2OKev-49" value="" style="line;strokeWidth=2;html=1;" parent="NPF-jErQcPBGCQD2OKev-47" vertex="1">
          <mxGeometry y="50" width="380" height="10" as="geometry" />
        </mxCell>
        <mxCell id="NPF-jErQcPBGCQD2OKev-50" value="+float : GetRadiius()&lt;div&gt;+void : SetRadius()const&lt;/div&gt;&lt;div&gt;+virutal void : DebugDraw(LineRenderer* Lines) const override&lt;/div&gt;&lt;div&gt;virtual void : ShapeChanges GetType() {return Circle}&lt;/div&gt;&lt;div&gt;+void : setMass()&lt;/div&gt;&lt;div&gt;+float GetMass() const {return mass}&lt;/div&gt;" style="text;strokeColor=none;fillColor=none;align=left;verticalAlign=top;spacingLeft=4;spacingRight=4;overflow=hidden;rotatable=0;points=[[0,0.5],[1,0.5]];portConstraint=eastwest;whiteSpace=wrap;html=1;" parent="NPF-jErQcPBGCQD2OKev-47" vertex="1">
          <mxGeometry y="60" width="380" height="130" as="geometry" />
        </mxCell>
        <mxCell id="NPF-jErQcPBGCQD2OKev-51" value="Plane : Object" style="swimlane;fontStyle=0;childLayout=stackLayout;horizontal=1;startSize=20;fillColor=#e3c800;horizontalStack=0;resizeParent=1;resizeParentMax=0;resizeLast=0;collapsible=1;marginBottom=0;html=1;fontColor=#000000;strokeColor=#B09500;" parent="WIyWlLk6GJQsqaUBKTNV-1" vertex="1">
          <mxGeometry x="810" y="480" width="370" height="140" as="geometry" />
        </mxCell>
        <mxCell id="NPF-jErQcPBGCQD2OKev-52" value="+float : displacement&amp;nbsp;&lt;div&gt;+Vec2 : planeNormal&lt;/div&gt;" style="text;strokeColor=none;fillColor=none;align=left;verticalAlign=top;spacingLeft=4;spacingRight=4;overflow=hidden;rotatable=0;points=[[0,0.5],[1,0.5]];portConstraint=eastwest;whiteSpace=wrap;html=1;" parent="NPF-jErQcPBGCQD2OKev-51" vertex="1">
          <mxGeometry y="20" width="370" height="50" as="geometry" />
        </mxCell>
        <mxCell id="NPF-jErQcPBGCQD2OKev-53" value="" style="line;strokeWidth=2;html=1;" parent="NPF-jErQcPBGCQD2OKev-51" vertex="1">
          <mxGeometry y="70" width="370" height="10" as="geometry" />
        </mxCell>
        <mxCell id="NPF-jErQcPBGCQD2OKev-54" value="+virtual void : DebugDraw(LineRenderer* Lines)const override&lt;div&gt;+virutal ShapesChganges GetTypes() const override&amp;nbsp; {return Plane}&lt;/div&gt;" style="text;strokeColor=none;fillColor=none;align=left;verticalAlign=top;spacingLeft=4;spacingRight=4;overflow=hidden;rotatable=0;points=[[0,0.5],[1,0.5]];portConstraint=eastwest;whiteSpace=wrap;html=1;" parent="NPF-jErQcPBGCQD2OKev-51" vertex="1">
          <mxGeometry y="80" width="370" height="60" as="geometry" />
        </mxCell>
        <mxCell id="8L2BLHVAzqGH_i5jZTM8-0" style="edgeStyle=orthogonalEdgeStyle;rounded=0;orthogonalLoop=1;jettySize=auto;html=1;" edge="1" parent="WIyWlLk6GJQsqaUBKTNV-1" source="NPF-jErQcPBGCQD2OKev-62" target="NPF-jErQcPBGCQD2OKev-47">
          <mxGeometry relative="1" as="geometry" />
        </mxCell>
        <mxCell id="8L2BLHVAzqGH_i5jZTM8-2" style="edgeStyle=orthogonalEdgeStyle;rounded=0;orthogonalLoop=1;jettySize=auto;html=1;entryX=0;entryY=0.5;entryDx=0;entryDy=0;" edge="1" parent="WIyWlLk6GJQsqaUBKTNV-1" target="NPF-jErQcPBGCQD2OKev-52">
          <mxGeometry relative="1" as="geometry">
            <mxPoint x="610" y="450" as="sourcePoint" />
            <Array as="points">
              <mxPoint x="710" y="450" />
              <mxPoint x="710" y="525" />
            </Array>
          </mxGeometry>
        </mxCell>
        <mxCell id="8L2BLHVAzqGH_i5jZTM8-3" style="edgeStyle=orthogonalEdgeStyle;rounded=0;orthogonalLoop=1;jettySize=auto;html=1;entryX=0;entryY=0.5;entryDx=0;entryDy=0;" edge="1" parent="WIyWlLk6GJQsqaUBKTNV-1" source="NPF-jErQcPBGCQD2OKev-62" target="NPF-jErQcPBGCQD2OKev-44">
          <mxGeometry relative="1" as="geometry" />
        </mxCell>
        <mxCell id="NPF-jErQcPBGCQD2OKev-62" value="RigidBody : Object" style="swimlane;fontStyle=0;childLayout=stackLayout;horizontal=1;startSize=20;fillColor=none;horizontalStack=0;resizeParent=1;resizeParentMax=0;resizeLast=0;collapsible=1;marginBottom=0;html=1;" parent="WIyWlLk6GJQsqaUBKTNV-1" vertex="1">
          <mxGeometry x="490" y="200" width="240" height="210" as="geometry" />
        </mxCell>
        <mxCell id="NPF-jErQcPBGCQD2OKev-63" value="+Vec2 : position&lt;div&gt;+Vec2 : velocity&lt;/div&gt;&lt;div&gt;+Vec2 : acceleration&lt;/div&gt;&lt;div&gt;+bool : isStatic&lt;/div&gt;&lt;div&gt;+float : mass&lt;/div&gt;&lt;div&gt;&lt;br&gt;&lt;/div&gt;" style="text;strokeColor=none;fillColor=none;align=left;verticalAlign=top;spacingLeft=4;spacingRight=4;overflow=hidden;rotatable=0;points=[[0,0.5],[1,0.5]];portConstraint=eastwest;whiteSpace=wrap;html=1;" parent="NPF-jErQcPBGCQD2OKev-62" vertex="1">
          <mxGeometry y="20" width="240" height="90" as="geometry" />
        </mxCell>
        <mxCell id="NPF-jErQcPBGCQD2OKev-64" value="" style="line;strokeWidth=2;html=1;" parent="NPF-jErQcPBGCQD2OKev-62" vertex="1">
          <mxGeometry y="110" width="240" height="10" as="geometry" />
        </mxCell>
        <mxCell id="NPF-jErQcPBGCQD2OKev-65" value="+void : Object(float xPos, float yPos&lt;div&gt;+bool : setStatic(bool setStatic)&amp;nbsp;&lt;/div&gt;&lt;div&gt;+void : AddForce(Vec2 Force)&lt;/div&gt;&lt;div&gt;+void : AddImpulse(Vec2 impulse)&lt;/div&gt;&lt;div&gt;&lt;br&gt;&lt;/div&gt;" style="text;strokeColor=none;fillColor=none;align=left;verticalAlign=top;spacingLeft=4;spacingRight=4;overflow=hidden;rotatable=0;points=[[0,0.5],[1,0.5]];portConstraint=eastwest;whiteSpace=wrap;html=1;" parent="NPF-jErQcPBGCQD2OKev-62" vertex="1">
          <mxGeometry y="120" width="240" height="90" as="geometry" />
        </mxCell>
        <mxCell id="NPF-jErQcPBGCQD2OKev-66" style="edgeStyle=orthogonalEdgeStyle;rounded=0;orthogonalLoop=1;jettySize=auto;html=1;entryX=0.474;entryY=0.001;entryDx=0;entryDy=0;entryPerimeter=0;" parent="WIyWlLk6GJQsqaUBKTNV-1" source="NPF-jErQcPBGCQD2OKev-31" target="NPF-jErQcPBGCQD2OKev-62" edge="1">
          <mxGeometry relative="1" as="geometry" />
        </mxCell>
      </root>
    </mxGraphModel>
  </diagram>
</mxfile>
